{"accessors":[{"bufferView":0,"componentType":5126,"count":89844,"max":[15.365626335144043,4.30131196975708,6.651711940765381],"min":[-13.50096607208252,0.022027000784873962,-17.15550994873047],"type":"VEC3"},{"bufferView":1,"componentType":5126,"count":89844,"type":"VEC2"},{"bufferView":2,"componentType":5125,"count":89844,"type":"SCALAR"},{"bufferView":3,"componentType":5126,"count":776268,"max":[16.036434173583984,45.46794128417969,13.213393211364746],"min":[-9.825384140014648,1.8135910034179688,-16.697246551513672],"type":"VEC3"},{"bufferView":4,"componentType":5126,"count":776268,"type":"VEC2"},{"bufferView":5,"componentType":5125,"count":776268,"type":"SCALAR"}],"asset":{"generator":"Luxion KeyShot","version":"2.0"},"bufferViews":[{"buffer":0,"byteLength":1078128,"byteOffset":0,"byteStride":12},{"buffer":0,"byteLength":718752,"byteOffset":1078128,"byteStride":8},{"buffer":0,"byteLength":359376,"byteOffset":1796880},{"buffer":0,"byteLength":9315216,"byteOffset":2156256,"byteStride":12},{"buffer":0,"byteLength":6210144,"byteOffset":11471472,"byteStride":8},{"buffer":0,"byteLength":3105072,"byteOffset":17681616}],"buffers":[{"byteLength":20786688,"uri":"./search4-2021-xr_resources 1/search4-2021-xr.bin"}],"cameras":[{"name":"active","perspective":{"aspectRatio":1.0,"yfov":0.6445570888856895,"zfar":146.64285278320313,"znear":105.87440490722656},"type":"perspective"},{"name":"Camera 1","perspective":{"aspectRatio":1.0,"yfov":0.6911154697478635,"zfar":134.7904510498047,"znear":93.46737670898438},"type":"perspective"},{"name":"search4. 1","perspective":{"aspectRatio":1.0,"yfov":0.6911154697478635,"zfar":138.98294067382813,"znear":94.56050872802734},"type":"perspective"},{"name":"search4. 2","perspective":{"aspectRatio":1.0,"yfov":0.6911154697478635,"zfar":138.98294067382813,"znear":94.56050872802734},"type":"perspective"},{"name":"search4. 3","perspective":{"aspectRatio":1.0,"yfov":0.6911154697478635,"zfar":138.96438598632813,"znear":94.5705337524414},"type":"perspective"},{"name":"search4. 4","perspective":{"aspectRatio":1.0,"yfov":0.6911154697478635,"zfar":143.81866455078125,"znear":97.55972290039063},"type":"perspective"},{"name":"search4. 5","perspective":{"aspectRatio":1.0,"yfov":0.6911154697478635,"zfar":138.745849609375,"znear":90.65499877929688},"type":"perspective"},{"name":"search4. 6","perspective":{"aspectRatio":1.0,"yfov":0.6911154697478635,"zfar":138.84286499023438,"znear":90.56768035888672},"type":"perspective"},{"name":"search4. 7","perspective":{"aspectRatio":1.0,"yfov":0.6445570888856895,"zfar":147.18142700195313,"znear":105.33583068847656},"type":"perspective"},{"name":"search4. 8","perspective":{"aspectRatio":1.0,"yfov":0.6911154697478635,"zfar":143.81866455078125,"znear":97.55972290039063},"type":"perspective"},{"name":"search4-2021-xr. 1","perspective":{"aspectRatio":1.0,"yfov":0.6445570888856895,"zfar":153.8892059326172,"znear":111.4315185546875},"type":"perspective"},{"name":"search4-2021-xr. 2","perspective":{"aspectRatio":1.0,"yfov":0.6445570888856895,"zfar":135.18722534179688,"znear":101.70600128173828},"type":"perspective"},{"name":"search4-2021-xr. 3","perspective":{"aspectRatio":1.0,"yfov":0.6445570888856895,"zfar":140.02590942382813,"znear":96.86784362792969},"type":"perspective"},{"name":"search4-2021-xr. 4","perspective":{"aspectRatio":1.0,"yfov":0.6445570888856895,"zfar":137.42672729492188,"znear":99.46623992919922},"type":"perspective"},{"name":"search4-2021-xr. 5","perspective":{"aspectRatio":1.0,"yfov":0.6445570888856895,"zfar":155.07553100585938,"znear":110.24547576904297},"type":"perspective"},{"name":"search4-2021-xr. 6","perspective":{"aspectRatio":1.0,"yfov":0.6445570888856895,"zfar":154.6165771484375,"znear":110.7044448852539},"type":"perspective"},{"name":"search4-2021-xr. 7","perspective":{"aspectRatio":1.0,"yfov":0.6445570888856895,"zfar":143.94732666015625,"znear":108.57054901123047},"type":"perspective"}],"extensionsUsed":["KHR_materials_transmission"],"images":[{"uri":"./search4-2021-xr_resources 1/M_MyPassPortBackUp-2011athleteAnatomyNewFBX2searchInwater_ProjectscenesforKeyshotCleanbase.obj_4_normal.png"},{"uri":"./search4-2021-xr_resources 1/M_MyPassPortBackUp-2011athleteAnatomyNewFBX2searchInwater_ProjectscenesforKeyshotCleanbase.obj_4_color.png"},{"uri":"./search4-2021-xr_resources 1/M_MyPassPortBackUp-2011athleteAnatomyNewFBX2searchInwater_ProjectscenesforKeyshotCleanbase.obj_4_roughness_metalness_transmission.png"},{"uri":"./search4-2021-xr_resources 1/M_MyPassPortBackUp-2011athleteAnatomyNewFBX2searchInwater_ProjectscenesforKeyshotCleanbody.obj_7_color.png"},{"uri":"./search4-2021-xr_resources 1/M_MyPassPortBackUp-2011athleteAnatomyNewFBX2searchInwater_ProjectscenesforKeyshotCleanbody.obj_7_roughness_metalness_transmission.png"}],"materials":[{"doubleSided":true,"name":"Metal Brushed 90° Black #1","normalTexture":{"index":0,"scale":-1},"pbrMetallicRoughness":{"baseColorTexture":{"index":1},"metallicRoughnessTexture":{"index":2}}},{"alphaMode":"MASK","doubleSided":true,"extensions":{"KHR_materials_transmission":{"transmissionFactor":3.698970317840576,"transmissionTexture":{"index":4}}},"name":"Paint Gloss White","pbrMetallicRoughness":{"baseColorTexture":{"index":3},"metallicRoughnessTexture":{"index":4}}}],"meshes":[{"name":"M:/MyPassPortBackUp-2011/athlete/AnatomyNew/FBX2/searchInwater_Project/scenes/forKeyshotClean/base.obj-mesh","primitives":[{"attributes":{"POSITION":0,"TEXCOORD_0":1},"indices":2,"material":0,"mode":4}]},{"name":"M:/MyPassPortBackUp-2011/athlete/AnatomyNew/FBX2/searchInwater_Project/scenes/forKeyshotClean/body.obj-mesh","primitives":[{"attributes":{"POSITION":3,"TEXCOORD_0":4},"indices":5,"material":1,"mode":4}]}],"nodes":[{"camera":0,"matrix":[0.0009492367470047168,-2.729348221874872e-10,0.00031456265697295363,0.0,-1.8813216386890307e-05,0.0009982099338433994,5.6772373878994385e-05,0.0,-0.00031399956345558164,-5.980835482478142e-05,0.0009475374817848206,0.0,-0.03523874664306641,0.014256155967712403,0.1186446533203125,1.0],"name":"active"},{"camera":1,"matrix":[0.000532348784563191,-2.8734432813704023e-10,0.0008465244165405569,0.0,-2.8367534794550032e-06,0.0009999936062262882,1.784271758582916e-06,0.0,-0.0008465200066566467,-3.3512399531900884e-06,0.0005323460102081299,0.0,-0.09632230377197266,0.02140049934387207,0.05722439956665039,1.0],"name":"Camera 1"},{"camera":2,"matrix":[0.0008565946138767186,-2.841046360391175e-10,-0.0005159902212980834,0.0,-3.7182010772743704e-05,0.0009974008405424595,-6.172635102873699e-05,0.0,0.000514648973941803,7.20599964261055e-05,0.0008543679714202882,0.0,0.06006840133666992,0.03012030029296875,0.09866310119628907,1.0],"name":"search4. 1"},{"camera":3,"matrix":[0.0008565946138767186,-2.841046360391175e-10,-0.0005159902212980834,0.0,-3.7182010772743704e-05,0.0009974008405424595,-6.172635102873699e-05,0.0,0.000514648973941803,7.20599964261055e-05,0.0008543679714202882,0.0,0.06006840133666992,0.03012030029296875,0.09866310119628907,1.0],"name":"search4. 2"},{"camera":4,"matrix":[0.0008581156248275528,-2.4805691412055354e-10,-0.0005134556837445114,0.0,-3.6999402427393956e-05,0.0009973997656841681,-6.183593589341904e-05,0.0,0.0005121210217475891,7.20599964261055e-05,0.0008558850288391114,0.0,0.05977149963378906,0.03012030029296875,0.09883100128173829,1.0],"name":"search4. 3"},{"camera":5,"matrix":[0.0005647247071725602,-2.786867809856375e-10,-0.0008252794960735416,0.0,-9.04818353442035e-05,0.000993971328879572,-6.191551494853545e-05,0.0,0.0008203039765357971,0.00010963799804449082,0.0005613200068473816,0.0,0.10040599822998048,0.034158000946044924,0.0659301986694336,1.0],"name":"search4. 4"},{"camera":6,"matrix":[0.0007692081815563241,4.147362719919556e-11,0.0006389983258603544,0.0,8.800473410456414e-05,0.0009904705927881003,-0.00010593768375869178,0.0,-0.0006329089999198914,0.00013772299885749816,0.0007618780136108399,0.0,-0.07095310211181641,0.037040901184082035,0.08599880218505859,1.0],"name":"search4. 5"},{"camera":7,"matrix":[0.0007692079400108547,-3.739321066120738e-10,0.0006389982174196796,0.0,9.098915338369853e-05,0.0009898099166899558,-0.00010952958428979751,0.0,-0.0006324869990348817,0.00014239299297332764,0.0007613700032234192,0.0,-0.07091190338134766,0.037582298278808594,0.08594920349121093,1.0],"name":"search4. 6"},{"camera":8,"matrix":[0.0005109390117492095,-2.7425101523093077e-10,-0.0008596177557811255,0.0,-1.7912059022544736e-05,0.0009997841346397495,-1.0646876318730654e-05,0.0,0.0008594310283660889,2.0837400108575822e-05,0.0005108280181884766,0.0,0.1114749984741211,0.024436899185180664,0.05970899963378906,1.0],"name":"search4. 7"},{"camera":9,"matrix":[0.0005647247071725602,-2.786867809856375e-10,-0.0008252794960735416,0.0,-9.04818353442035e-05,0.000993971328879572,-6.191551494853545e-05,0.0,0.0008203039765357971,0.00010963799804449082,0.0005613200068473816,0.0,0.10040599822998048,0.034158000946044924,0.0659301986694336,1.0],"name":"search4. 8"},{"camera":10,"matrix":[0.0006660320710170391,-3.1225342025931194e-10,-0.0007459228144841043,0.0,3.26321737319864e-06,0.000999990442369925,2.913297639672509e-06,0.0,0.0007459160089492798,-4.3744598515331746e-06,0.0006660259962081909,0.0,0.10316200256347656,0.020943500518798827,0.08308260345458984,1.0],"name":"search4-2021-xr. 1"},{"camera":11,"matrix":[0.000994788570263719,-3.163572100638168e-10,0.0001019586991988476,0.0,5.825865380810086e-07,0.0009999832357068517,-5.681065783668652e-06,0.0,-0.00010195700079202652,5.710859782993794e-06,0.0009947720170021058,0.0,-0.01093179988861084,0.02181170082092285,0.11585299682617188,1.0],"name":"search4-2021-xr. 2"},{"camera":12,"matrix":[0.0006714377974905591,-3.110960753449632e-10,0.0007410610390016651,0.0,-1.4451445189733071e-05,0.0009998098632917648,1.3094140772461613e-05,0.0,-0.0007409200072288514,-1.9501300528645516e-05,0.0006713100075721741,0.0,-0.08740699768066407,0.018952699661254884,0.0764905014038086,1.0],"name":"search4-2021-xr. 3"},{"camera":13,"matrix":[0.00015144792845845818,-2.515652976486926e-10,0.0009884651976450455,0.0,-9.390346239507226e-05,0.0009954775771092877,1.4387694494763975e-05,0.0,-0.0009839950203895569,-9.4999298453331e-05,0.00015076300501823425,0.0,-0.11541500091552735,0.010206199645996094,0.014213999748229981,1.0],"name":"search4-2021-xr. 4"},{"camera":14,"matrix":[-0.0008242274753585911,-3.2899048219015013e-10,0.0005662580034640299,0.0,-3.9566077158488095e-05,0.0009975549600425718,-5.7590567374944095e-05,0.0,-0.0005648739933967591,-6.98724016547203e-05,-0.0008222129940986633,0.0,-0.07315859985351562,0.014101699829101562,-0.11144999694824219,1.0],"name":"search4-2021-xr. 5"},{"camera":15,"matrix":[-0.0007146592324109727,-3.297714482597414e-10,-0.0006994720916508101,0.0,2.4218077113868457e-05,0.0009993998451375786,-2.474437819721017e-05,0.0,0.0006990529894828797,-3.4623701125383375e-05,-0.000714231014251709,0.0,0.09245580291748047,0.019134300231933594,-0.09828469848632812,1.0],"name":"search4-2021-xr. 6"},{"camera":16,"matrix":[-0.00020426039371881157,-3.1047830328923e-10,-0.0009789173184150885,0.0,-5.590532990544341e-06,0.0009999847844707507,1.1662006327722545e-06,0.0,0.0009789010286331177,5.710870027542114e-06,-0.00020425699651241302,0.0,0.12422000122070313,0.02293280029296875,-0.030855300903320313,1.0],"name":"search4-2021-xr. 7"},{"mesh":0,"name":"M:/MyPassPortBackUp-2011/athlete/AnatomyNew/FBX2/searchInwater_Project/scenes/forKeyshotClean/base.obj"},{"children":[17],"name":"base"},{"mesh":1,"name":"M:/MyPassPortBackUp-2011/athlete/AnatomyNew/FBX2/searchInwater_Project/scenes/forKeyshotClean/body.obj"},{"children":[19],"name":"body"},{"children":[18,20],"name":"Default"},{"children":[21],"matrix":[0.001,0.0,0.0,0.0,0.0,0.001,0.0,0.0,0.0,0.0,0.001,0.0,0.0,0.0,0.0,1.0],"name":"lux_root"}],"samplers":[{"magFilter":9729,"minFilter":9987,"wrapS":10497,"wrapT":10497},{"magFilter":9729,"minFilter":9987,"wrapS":10497,"wrapT":10497},{"magFilter":9729,"minFilter":9987,"wrapS":10497,"wrapT":10497},{"magFilter":9729,"minFilter":9987,"wrapS":10497,"wrapT":10497},{"magFilter":9729,"minFilter":9987,"wrapS":10497,"wrapT":10497}],"scenes":[{"nodes":[0,1,2,3,4,5,6,7,8,9,10,11,12,13,14,15,16,22]}],"textures":[{"sampler":0,"source":0},{"sampler":1,"source":1},{"sampler":2,"source":2},{"sampler":3,"source":3},{"sampler":4,"source":4}]}